<svg width="51" height="34" viewBox="0 0 51 34" fill="none" xmlns="http://www.w3.org/2000/svg">
<g>
<path d="M29.213 8.08995C31.5158 8.08995 33.4319 6.36476 33.4319 4.0701C33.4319 1.72519 31.5326 0 29.213 0C26.8599 0 24.9941 1.72519 24.9941 4.0701C25.0109 6.36476 26.8767 8.08995 29.213 8.08995Z" />
<path d="M32.8434 11.4399H25.6663V32.8791H32.8434V11.4399Z" />
<path d="M50.7277 11.105C47.7694 11.1887 45.5843 12.1769 43.7522 13.7346V11.44H36.575V32.8792H42.7773L43.769 30.1825V20.6354C44.8952 19.5132 46.2735 18.7259 48.1056 18.2905L50.7277 11.105Z" />
<path d="M11.7491 27.3015C8.68993 27.3015 6.8242 25.0403 6.8242 22.1259C6.8242 19.2116 8.68993 17.0006 11.7491 17.0006C13.9678 17.0006 15.615 18.2903 15.968 20.2333H22.7586C22.2711 14.706 17.6992 10.9541 11.7659 10.9541C4.95847 10.9541 0 15.6439 0 22.1427C0 28.675 4.95847 33.3648 11.7491 33.3648C17.6992 33.3648 22.2543 29.6129 22.7417 24.0856H15.968C15.615 26.0286 13.9678 27.3015 11.7491 27.3015Z" />
</g>
</svg>
