<svg viewBox="0 0 85 54" fill="none" xmlns="http://www.w3.org/2000/svg">
<g>
<path d="M77.8231 46.0943C76.4952 47.6353 74.9489 48.0875 73.3521 48.0875C70.4274 48.0875 68.2927 45.7426 68.2927 42.7779C68.2927 39.8133 70.4274 37.4349 73.3521 37.4349C74.9489 37.4349 76.4952 37.9206 77.8231 39.4616V46.0943ZM85.0003 53.5143V32.0751H77.8231V33.2308C76.2263 32.2091 74.2765 31.5894 71.9234 31.5894C66.1077 31.5894 61.2332 36.3629 61.2332 42.7612C61.2332 49.1259 66.1077 53.933 71.9234 53.933C74.2765 53.933 76.2263 53.3133 77.8231 52.2916V53.4808H85.0003V53.5143Z" />
<path d="M52.7447 40.8685H59.5353C59.0479 35.3412 54.476 31.5894 48.5427 31.5894C46.4248 31.5894 44.4918 32.0416 42.811 32.8623L37.6004 47.116C39.2812 51.2866 43.3825 53.9833 48.5258 53.9833C54.476 53.9833 59.0311 50.2314 59.5185 44.7041H52.7279C52.375 46.647 50.7277 47.9367 48.509 47.9367C45.4499 47.9367 43.5842 45.6756 43.5842 42.7612C43.5842 39.8468 45.4499 37.6359 48.509 37.6359C50.7446 37.6526 52.3918 38.9256 52.7447 40.8685Z" />
<path d="M29.213 8.08995C31.5158 8.08995 33.4319 6.36476 33.4319 4.0701C33.4319 1.72519 31.5326 0 29.213 0C26.8599 0 24.9941 1.72519 24.9941 4.0701C25.0109 6.36476 26.8767 8.08995 29.213 8.08995Z" />
</g>
</svg>
