<svg width="48" height="23" viewBox="0 0 48 23" fill="none" xmlns="http://www.w3.org/2000/svg">
<g>
<path d="M15.1443 9.27915H21.9349C21.4475 3.75186 16.8756 0 10.9422 0C8.82439 0 6.89143 0.452232 5.2106 1.27295L0 15.5267C1.68084 19.6973 5.78208 22.3939 10.9254 22.3939C16.8756 22.3939 21.4307 18.6421 21.9181 13.1148H15.1275C14.7746 15.0577 13.1273 16.3474 10.9086 16.3474C7.84951 16.3474 5.98378 14.0862 5.98378 11.1718C5.98378 8.25744 7.84951 6.04652 10.9086 6.04652C13.1441 6.06327 14.7914 7.33623 15.1443 9.27915Z" />
<path d="M40.5248 14.505C39.197 16.0459 37.6506 16.4981 36.0538 16.4981C33.1291 16.4981 30.9945 14.1532 30.9945 11.1886C30.9945 8.22394 33.1291 5.84553 36.0538 5.84553C37.6506 5.84553 39.197 6.33126 40.5248 7.87221V14.505ZM47.702 21.9249V0.485731H40.5248V1.64144C38.928 0.619725 36.9782 0 34.6251 0C28.8094 0 23.9349 4.77357 23.9349 11.1718C23.9349 17.5366 28.8094 22.3437 34.6251 22.3437C36.9782 22.3437 38.928 21.7239 40.5248 20.7022V21.8914H47.702V21.9249Z" />
</g>
</svg>
