<svg width="85" height="54" viewBox="0 0 85 54" fill="none" xmlns="http://www.w3.org/2000/svg">
<g clip-path="url(#clip0)">
<path d="M77.8231 46.0943C76.4952 47.6353 74.9489 48.0875 73.3521 48.0875C70.4274 48.0875 68.2927 45.7426 68.2927 42.7779C68.2927 39.8133 70.4274 37.4349 73.3521 37.4349C74.9489 37.4349 76.4952 37.9206 77.8231 39.4616V46.0943ZM85.0003 53.5143V32.0751H77.8231V33.2308C76.2263 32.2091 74.2765 31.5894 71.9234 31.5894C66.1077 31.5894 61.2332 36.3629 61.2332 42.7612C61.2332 49.1259 66.1077 53.933 71.9234 53.933C74.2765 53.933 76.2263 53.3133 77.8231 52.2916V53.4808H85.0003V53.5143Z" fill="black"/>
<path d="M52.7447 40.8685H59.5353C59.0479 35.3412 54.476 31.5894 48.5427 31.5894C46.4248 31.5894 44.4918 32.0416 42.811 32.8623L37.6004 47.116C39.2812 51.2866 43.3825 53.9833 48.5258 53.9833C54.476 53.9833 59.0311 50.2314 59.5185 44.7041H52.7279C52.375 46.647 50.7277 47.9367 48.509 47.9367C45.4499 47.9367 43.5842 45.6756 43.5842 42.7612C43.5842 39.8468 45.4499 37.6359 48.509 37.6359C50.7446 37.6526 52.3918 38.9256 52.7447 40.8685Z" fill="black"/>
<path d="M29.213 8.08995C31.5158 8.08995 33.4319 6.36476 33.4319 4.0701C33.4319 1.72519 31.5326 0 29.213 0C26.8599 0 24.9941 1.72519 24.9941 4.0701C25.0109 6.36476 26.8767 8.08995 29.213 8.08995Z" fill="black"/>
<path d="M32.8434 11.4399H25.6663V32.8791H32.8434V11.4399Z" fill="black"/>
<path d="M50.7277 11.105C47.7694 11.1887 45.5843 12.1769 43.7522 13.7346V11.44H36.575V32.8792H42.7773L43.769 30.1825V20.6354C44.8952 19.5132 46.2735 18.7259 48.1056 18.2905L50.7277 11.105Z" fill="black"/>
<path d="M11.7491 27.3015C8.68993 27.3015 6.8242 25.0403 6.8242 22.1259C6.8242 19.2116 8.68993 17.0006 11.7491 17.0006C13.9678 17.0006 15.615 18.2903 15.968 20.2333H22.7586C22.2711 14.706 17.6992 10.9541 11.7659 10.9541C4.95847 10.9541 0 15.6439 0 22.1427C0 28.675 4.95847 33.3648 11.7491 33.3648C17.6992 33.3648 22.2543 29.6129 22.7417 24.0856H15.968C15.615 26.0286 13.9678 27.3015 11.7491 27.3015Z" fill="black"/>
</g>
<defs>
<clipPath id="clip0">
<rect width="85" height="54" fill="white"/>
</clipPath>
</defs>
</svg>
