<svg width="83" height="83" viewBox="0 0 83 83" fill="none" xmlns="http://www.w3.org/2000/svg">
<path d="M69.1811 11.9247L42.8394 1.0136C41.9818 0.658369 41.0182 0.658369 40.1606 1.0136L13.8189 11.9247C12.9613 12.2799 12.2799 12.9613 11.9247 13.8189L1.0136 40.1606C0.658369 41.0182 0.658369 41.9818 1.0136 42.8394L11.9247 69.1811C12.2799 70.0387 12.9613 70.7201 13.8189 71.0753L40.1606 81.9864C41.0182 82.3416 41.9818 82.3416 42.8394 81.9864L69.1811 71.0753C70.0387 70.7201 70.7201 70.0387 71.0753 69.1811L81.9864 42.8394C82.3416 41.9818 82.3416 41.0182 81.9864 40.1606L71.0753 13.8189C70.7201 12.9613 70.0387 12.2799 69.1811 11.9247Z" stroke="#212A33"/>
<path d="M43.3726 31.7359C42.562 32.2724 41.781 32.8946 41.0596 33.616C39.9967 34.6789 40.0253 34.7365 39.0749 35.8244M43.3726 31.7359C48.4506 28.3747 54.6871 28.3747 54.6871 28.3747C54.6871 28.3747 54.6871 34.6111 51.3258 39.6892M43.3726 31.7359L51.3258 39.6892M51.3258 39.6892C50.7893 40.4997 50.1672 41.2807 49.4457 42.0022C48.3829 43.065 48.3252 43.0365 47.2373 43.9869M33.5328 42.8616C32.9807 43.6378 32.6734 44.0987 32.6734 44.0987L38.963 50.3883C38.963 50.3883 39.4239 50.0811 40.2001 49.5289M33.5328 42.8616L28.4803 37.8091L36.8665 33.616L39.0749 35.8244M33.5328 42.8616C34.6067 41.3518 36.6071 38.649 39.0749 35.8244M40.2001 49.5289L45.2526 54.5814L49.4457 46.1953L47.2373 43.9869M40.2001 49.5289C41.7099 48.455 44.4127 46.4546 47.2373 43.9869" stroke="#212A33"/>
<path d="M31.8798 51.1204C32.399 49.019 33.3621 48.1556 34.1034 48.8968C34.8447 49.638 33.9811 50.6011 31.8798 51.1204Z" stroke="#212A33"/>
</svg>
