<svg width="83" height="83" viewBox="0 0 83 83" fill="none" xmlns="http://www.w3.org/2000/svg">
<path d="M69.1811 11.9247L42.8394 1.0136C41.9818 0.658369 41.0182 0.658369 40.1606 1.0136L13.8189 11.9247C12.9613 12.2799 12.2799 12.9613 11.9247 13.8189L1.0136 40.1606C0.658369 41.0182 0.658369 41.9818 1.0136 42.8394L11.9247 69.1811C12.2799 70.0387 12.9613 70.7201 13.8189 71.0753L40.1606 81.9864C41.0182 82.3416 41.9818 82.3416 42.8394 81.9864L69.1811 71.0753C70.0387 70.7201 70.7201 70.0387 71.0753 69.1811L81.9864 42.8394C82.3416 41.9818 82.3416 41.0182 81.9864 40.1606L71.0753 13.8189C70.7201 12.9613 70.0387 12.2799 69.1811 11.9247Z" stroke="#212A33"/>
<path d="M45.2219 49.0213C47.8399 47.8774 49.6694 45.2652 49.6694 42.2256C49.6694 36.2957 42.257 27.4009 42.257 27.4009C42.257 27.4009 34.8446 36.2957 34.8446 42.2256C34.8446 45.2652 36.6741 47.8774 39.292 49.0213V54.0855H45.2219V49.0213Z" stroke="#212A33"/>
<path d="M42.257 27.4009V39.2607" stroke="#212A33" stroke-linejoin="round"/>
<circle cx="42.257" cy="40.743" r="1.48248" stroke="#212A33" stroke-linecap="round"/>
</svg>
