<svg width="83" height="83" viewBox="0 0 83 83" fill="none" xmlns="http://www.w3.org/2000/svg">
<path d="M69.1811 11.9247L42.8394 1.0136C41.9818 0.658369 41.0182 0.658369 40.1606 1.0136L13.8189 11.9247C12.9613 12.2799 12.2799 12.9613 11.9247 13.8189L1.0136 40.1606C0.658369 41.0182 0.658369 41.9818 1.0136 42.8394L11.9247 69.1811C12.2799 70.0387 12.9613 70.7201 13.8189 71.0753L40.1606 81.9864C41.0182 82.3416 41.9818 82.3416 42.8394 81.9864L69.1811 71.0753C70.0387 70.7201 70.7201 70.0387 71.0753 69.1811L81.9864 42.8394C82.3416 41.9818 82.3416 41.0182 81.9864 40.1606L71.0753 13.8189C70.7201 12.9613 70.0387 12.2799 69.1811 11.9247Z" stroke="#212A33"/>
<path fill-rule="evenodd" clip-rule="evenodd" d="M48.1871 40.743C46.7046 42.2255 46.7046 45.1904 46.7046 46.6729C46.7046 48.1554 45.2221 48.1554 45.2221 48.1554H39.2922C39.2922 48.1554 37.8098 48.1554 37.8098 46.6729C37.8098 45.1904 37.8098 42.2255 36.3273 40.743C32.879 37.2947 32.4939 31.9971 35.9676 28.5235C39.4412 25.0498 45.0731 25.0498 48.5468 28.5235C52.0205 31.9971 51.7552 37.1749 48.1871 40.743Z" stroke="#212A33" stroke-linecap="round"/>
<path d="M39.292 54.0853H45.2219" stroke="#212A33" stroke-linecap="round"/>
</svg>
