<?xml version="1.0" standalone="no"?>
<!DOCTYPE svg PUBLIC "-//W3C//DTD SVG 20010904//EN"
 "http://www.w3.org/TR/2001/REC-SVG-20010904/DTD/svg10.dtd">
<svg version="1.0" xmlns="http://www.w3.org/2000/svg"
 width="622.000000pt" height="622.000000pt" viewBox="0 0 622.000000 622.000000"
 preserveAspectRatio="xMidYMid meet">
<metadata>
Created by potrace 1.14, written by Peter Selinger 2001-2017
</metadata>
<g transform="translate(0.000000,622.000000) scale(0.100000,-0.100000)"
fill="#000000" stroke="none">
<path d="M2835 6209 c-1249 -117 -2307 -964 -2688 -2154 -288 -898 -148 -1887
376 -2670 131 -197 248 -335 434 -516 904 -879 2271 -1116 3431 -595 214 96
476 257 672 412 143 113 414 394 527 544 256 343 435 712 533 1100 269 1064
-16 2150 -770 2933 -598 621 -1405 962 -2260 956 -91 -1 -205 -5 -255 -10z
m586 -919 c382 -38 715 -147 1009 -329 421 -262 726 -676 843 -1146 22 -87 57
-280 57 -314 0 -8 -177 -11 -663 -11 l-663 0 -17 68 c-96 372 -488 606 -927
553 -338 -41 -582 -208 -725 -496 -206 -417 -125 -965 188 -1262 111 -105 227
-169 392 -215 102 -29 354 -36 464 -14 223 45 403 161 515 331 42 62 90 175
101 238 l7 37 664 0 664 0 -5 -27 c-2 -16 -12 -75 -20 -132 -62 -391 -248
-756 -529 -1036 -318 -316 -734 -516 -1231 -591 -166 -25 -559 -26 -730 -1
-267 39 -499 109 -730 221 -648 315 -1057 875 -1172 1606 -27 173 -25 540 5
710 125 729 536 1276 1188 1586 255 122 538 195 874 227 83 8 346 6 441 -3z"/>
</g>
</svg>
